<?xml version="1.0" standalone="no"?>
<!DOCTYPE svg PUBLIC "-//W3C//DTD SVG 1.1//EN" "http://www.w3.org/Graphics/SVG/1.1/DTD/svg11.dtd" >
<svg xmlns="http://www.w3.org/2000/svg" xmlns:svg="http://www.w3.org/2000/svg" xmlns:xlink="http://www.w3.org/1999/xlink" viewBox="0 0 1024 1024"><path d="M227.52 636.02Q225.98 634.79 227.58 626.39Q239 621.89 237.55 623.25Q259.62 630.98 320.86 619.41Q413.01 614.59 521.01 608.46Q661.97 602.12 710.03 625.46Q783.24 612.27 794.58 648.71Q800.85 656.13 787.52 696.78Q776.33 732.33 769.21 820.68Q790.69 905.8 779.27 895.33Q756.5 922.25 752.11 904.81Q779.03 912.84 729.16 914.65Q692.09 913.05 511.6 939.4Q420.71 923.11 333.6 930.23Q268.66 922.84 277.13 921.69Q232.77 941.09 242.75 919.96Q233.63 862.88 210.3 828.59Q216.63 723.02 231 665.42Q226.63 672.99 229.58 643.31ZM473.57 542.32Q478.91 543.14 492.81 481.92Q489.92 472.94 501.83 418.25Q528.17 371.76 532.7 289.75Q518.42 258.52 528.55 203.82Q535.58 170.99 521.79 200.72Q514.32 163.67 544.97 158.29Q565.49 136.83 624.64 139.45Q636.12 156.34 683.88 141.51Q684.18 131.68 743.65 132.48Q812.26 104.68 823.07 122.66Q842.52 120.13 857.49 104.65Q862.88 104.5 849.27 134.2Q871.99 152.54 864.23 166.92Q849.98 167.23 833.37 166.91Q787.47 183.57 687.45 182.62Q670.03 197.56 653.31 207.72Q613.61 217.13 609.33 232.7Q608.17 201.53 609.87 240.58Q590.91 258.18 608.76 241.23V274.17L735.65 285.07Q800.47 277.18 817.6 266.13Q886.61 270.11 873.14 293.57Q901.48 292.69 927.99 315.12Q916.19 312.9 895.18 310.57Q917 333.86 901.45 349.09Q916.77 355.77 901.33 357.62Q891.87 360.39 871.05 373.23Q819.37 375.64 814.48 351.27Q800.43 350.17 797.39 356.81Q809.23 365.92 791.03 382.02Q812.49 430.42 805.71 481.3Q790.22 515.78 805.5 545.36Q803.2 564.97 768.94 583.81Q757.6 610.89 775.05 591.37Q741.82 598.66 749.63 596.47Q725.12 560 754.29 558.07Q718.99 507.11 728.26 468.67L710.1 349.27L584.21 343.3V359.89Q585.2 417.37 584.75 460.46Q559.07 535.87 538.93 555.71Q503.53 594.77 497.3 588.1Q486.2 588.31 500.32 579.12Q457.02 594.68 469.43 565.73Q472.28 548.48 450.18 563.59Q446.44 568.61 447.14 544.73ZM103.04 390.93Q122.81 387.99 136.15 372.2Q188.32 377.55 217.41 348.55Q249.15 349.48 276.8 354.81Q285.97 340.39 285.96 325.54Q289.22 329.19 294.4 343.85Q295.7 316.93 278.39 315.1Q284.82 308.87 285.04 272.26V237.21H240.36Q156.16 250.9 141.04 247.19Q122.58 252.33 141.41 213.32Q114.53 208.65 138.18 217.67Q116.48 190.57 144.72 178.05Q166.27 168.93 224.16 198.86H289.66V147.71Q295.81 147.53 295.59 125.26Q307.42 129.24 301.95 124.7Q327.9 81.1 328.55 111.61Q311.77 98.98 330.49 106.97Q346.44 98.67 379.14 102.31Q387.14 105.02 380.92 160.67V189.23H420.14Q460.5 177.88 466.31 206.72Q475.76 210.94 466.39 234.13Q472.09 231.14 443.99 231.7Q450.84 232.54 448.42 252.65Q425.27 241.3 405.1 240.55L363.7 256.47L364.78 298.78Q355.83 282.93 363.25 309.17Q375.03 321.02 368.9 315.31Q376.15 313.79 372 319.76Q357.65 345.31 396.67 330.14Q380.39 353.81 385.43 333.87Q408.5 336.87 403.65 337.67Q406.84 330.65 408.63 325.49Q445.42 327.09 458.16 322.92Q461.98 326.87 451.79 342.96Q449.64 371.92 448.91 358.42Q461.78 399.9 439.41 377.05Q451.43 402.19 416.82 398.12L392.41 394.7V478.33Q385.68 530.13 390.36 568.29Q383.97 588.69 356.61 594.06Q346.86 575.5 344.85 589.79Q328.66 601.95 345.79 574.4Q311.21 581.55 319.83 559Q306.38 553.61 271.2 539.89Q276.93 550.67 275.02 555.06Q258.85 545.18 263.71 514.95Q252.04 494.24 253.93 499.38Q230.91 512.95 226.7 484.53Q247.43 459.1 266.05 461.74Q255.05 463.29 274.79 491.31Q270.21 460.44 266.71 461.27Q270.61 481.64 297.85 477.55Q278.74 497.49 294.03 472.37Q285.92 466.73 295.39 501.37Q292.85 470.95 301.5 442.2Q314.64 454.54 308.53 435.16Q314.13 421.64 281.07 432.05Q297.2 442.06 250.67 426.99Q253.52 432.66 202.03 458Q168.68 466.55 144.14 462.01Q148.94 450.77 156.11 463.63Q135.66 464.17 132.89 427.17Q120.52 422.02 119.33 425.32Q123.04 413.34 99.28 417.14Q98.93 414.16 115.69 379.07ZM299.98 705.59V723.09Q295.05 738.85 281.81 761.1Q279.23 766.35 301.75 801.72L292.51 850.82H725.25L718.04 796.42Q703.67 781.78 719.36 741.1Q693.27 712.98 694.72 712.51Q722.8 736.06 724.27 723.71Q695.54 721.95 701.78 720.08Q718.12 691.09 699.48 689.77Q719.34 682.69 652.07 698.1Q553.24 692.16 409.02 693.23Z" fill="black"></path></svg>