<?xml version="1.0" standalone="no"?>
<!DOCTYPE svg PUBLIC "-//W3C//DTD SVG 1.1//EN" "http://www.w3.org/Graphics/SVG/1.1/DTD/svg11.dtd" >
<svg xmlns="http://www.w3.org/2000/svg" xmlns:svg="http://www.w3.org/2000/svg" xmlns:xlink="http://www.w3.org/1999/xlink" viewBox="0 0 1024 1024"><path d="M215.0 650.5Q218.0 622.5 242.0 622.5Q246.0 622.5 249.0 622.5Q263.0 622.5 340.5 621.5Q418.0 620.5 524.0 620.5Q670.0 620.5 723.0 623.0Q776.0 625.5 776.0 629.5Q781.0 647.5 781.0 704.5Q781.0 733.5 778.5 810.0Q776.0 886.5 767.0 913.5Q767.0 914.5 767.0 914.5Q767.0 924.5 727.5 927.0Q688.0 929.5 513.0 929.5Q411.0 931.5 339.0 931.5Q267.0 931.5 261.0 929.5Q249.0 926.5 240.5 900.5Q232.0 874.5 227.0 827.5Q214.0 712.5 214.0 668.5Q214.0 657.5 215.0 650.5ZM465.0 543.5Q468.0 530.5 483.0 499.5Q502.0 461.5 510.5 417.5Q519.0 373.5 522.0 283.5Q522.0 245.5 525.0 217.0Q528.0 188.5 529.0 181.5Q533.0 168.5 553.5 160.5Q574.0 152.5 616.0 145.5Q637.0 141.5 669.5 136.0Q702.0 130.5 733.0 125.5Q795.0 113.5 824.0 113.5Q832.0 113.5 843.5 116.0Q855.0 118.5 855.0 135.5Q855.0 141.5 853.0 148.5Q853.0 166.5 821.0 178.5Q789.0 190.5 702.0 200.5Q663.0 208.5 635.0 213.0Q607.0 217.5 603.0 218.5Q600.0 220.5 598.0 230.5Q596.0 240.5 596.0 253.5V280.5L731.0 281.5Q789.0 281.5 831.0 282.5Q873.0 283.5 880.0 285.5Q904.0 289.5 908.0 301.0Q912.0 312.5 912.0 318.5Q912.0 330.5 904.0 343.5Q900.0 350.5 888.5 353.0Q877.0 355.5 852.0 355.5Q834.0 357.5 821.0 358.5Q808.0 359.5 807.0 359.5Q807.0 361.5 805.0 392.0Q803.0 422.5 801.0 465.5Q799.0 535.5 796.5 555.5Q794.0 575.5 783.0 580.5Q771.0 591.5 762.0 591.5Q753.0 591.5 744.0 580.5Q740.0 577.5 737.5 549.5Q735.0 521.5 733.0 463.5L729.0 355.5L589.0 352.5V375.5Q587.0 416.5 565.5 479.5Q544.0 542.5 522.0 569.5Q509.0 585.5 493.0 585.5Q492.0 585.5 483.0 585.0Q474.0 584.5 466.0 568.5Q463.0 562.5 463.0 555.5Q463.0 549.5 465.0 543.5ZM115.0 393.5Q119.0 389.5 144.0 382.5Q169.0 375.5 207.0 368.5Q268.0 357.5 285.5 350.5Q303.0 343.5 303.0 333.5Q303.0 330.5 301.0 326.5Q299.0 323.5 298.0 311.5Q297.0 299.5 297.0 287.5V254.5H222.0Q159.0 254.5 141.0 249.0Q123.0 243.5 123.0 227.5Q123.0 223.5 124.0 218.5Q126.0 199.5 147.5 191.0Q169.0 182.5 229.0 182.5H297.0V155.5Q297.0 143.5 299.0 130.0Q301.0 116.5 304.0 109.5Q308.0 100.5 314.5 96.5Q321.0 92.5 333.0 92.5Q357.0 92.5 366.5 105.5Q376.0 118.5 376.0 148.5V182.5H403.0Q447.0 184.5 459.0 196.0Q471.0 207.5 471.0 217.5Q471.0 228.5 463.0 240.5Q457.0 247.5 447.5 251.0Q438.0 254.5 412.0 256.5L373.0 258.5L371.0 283.5Q370.0 290.5 370.0 298.5Q370.0 301.5 370.5 309.0Q371.0 316.5 371.0 323.5Q375.0 332.5 379.0 333.5Q383.0 334.5 390.0 334.5Q394.0 334.5 400.0 334.5Q408.0 333.5 416.0 333.5Q431.0 333.5 445.0 340.0Q459.0 346.5 465.0 362.5Q466.0 365.5 466.0 368.5Q466.0 382.5 453.5 393.5Q441.0 404.5 409.0 407.5L376.0 411.5V488.5Q376.0 539.5 373.5 555.5Q371.0 571.5 362.0 578.5Q352.0 590.5 341.0 590.5Q340.0 590.5 334.0 590.0Q328.0 589.5 303.0 571.5Q290.0 564.5 279.0 559.0Q268.0 553.5 265.0 553.5Q256.0 550.5 246.5 531.5Q237.0 512.5 237.0 499.5Q237.0 494.5 238.0 490.5Q241.0 474.5 247.0 473.0Q253.0 471.5 256.0 471.5Q264.0 471.5 276.0 478.5Q286.0 485.5 288.5 486.0Q291.0 486.5 292.0 486.5Q296.0 486.5 299.0 481.5Q304.0 470.5 304.0 454.5Q304.0 438.5 297.0 433.5Q296.0 432.5 291.0 432.5Q284.0 432.5 265.5 434.5Q247.0 436.5 214.0 440.5Q171.0 447.5 158.5 448.0Q146.0 448.5 143.0 448.5Q129.0 448.5 124.0 445.5Q115.0 438.5 113.5 427.0Q112.0 415.5 112.0 410.5Q112.0 400.5 115.0 393.5ZM292.0 703.5V719.5Q292.0 726.5 293.5 748.0Q295.0 769.5 299.0 796.5L306.0 857.5H706.0L708.0 796.5Q708.0 771.5 708.5 751.0Q709.0 730.5 709.0 722.5Q710.0 718.5 710.0 714.5Q710.0 712.5 709.0 708.0Q708.0 703.5 704.0 701.5Q702.0 697.5 633.5 697.5Q565.0 697.5 394.0 699.5Z" fill="black"></path></svg>